<svg width="57" height="58" viewBox="0 0 57 58" fill="none" xmlns="http://www.w3.org/2000/svg">
<path fill-rule="evenodd" clip-rule="evenodd" d="M33.5229 41.4449L20.8135 23.9675L34.2777 40.8745C34.4325 41.0667 34.3913 41.3544 34.1851 41.5167C33.9798 41.6781 33.6886 41.6524 33.5347 41.4612C33.5302 41.4562 33.5263 41.4507 33.5229 41.4449Z" fill="#010202"/>
<path d="M33.6067 40.7542C34.3103 41.6525 34.9582 49.5407 34.9582 49.5407C34.9582 49.5407 39.5697 44.3252 40.6098 37.0116C41.6483 29.698 40.2311 28.7203 39.0009 25.0059C37.7706 21.2915 32.5801 16.5029 29.9243 15.1879C28.009 14.2401 21.876 12.0849 18.5537 10.9398C17.3571 10.5299 16.0081 11.2062 15.5832 12.4221C13.6107 18.0732 13.2362 24.1179 14.8628 29.6827C15.8281 32.9821 17.4875 36.0988 20.326 37.6256C20.326 37.6256 26.9369 40.9216 31.3389 40.0882C35.7391 39.2548 34.9296 47.6536 34.9296 47.6536" stroke="#010202" stroke-width="0.5" stroke-linecap="round" stroke-linejoin="round"/>
<path fill-rule="evenodd" clip-rule="evenodd" d="M28.6352 56.7987L25.2574 57.3896L22.1169 55.9961L18.6986 55.7493L15.978 53.6334L12.7163 52.5634L10.5746 49.8481L7.66048 48.0182L6.22065 44.8622L3.82233 42.3774L3.16931 38.9618L1.42738 35.9672L1.59821 32.4936L0.612793 29.1626L1.59737 25.8316L1.42738 22.3579L3.16931 19.3625L3.82233 15.9486L6.22065 13.4638L7.65964 10.307L10.5746 8.47625L12.7163 5.76088L15.978 4.69181L18.6986 2.57587L22.1169 2.3291L25.2574 0.935547L28.6352 1.52644L32.0131 0.935547L35.1536 2.3291L38.5718 2.57587L41.2925 4.69181L44.5542 5.76173L46.6958 8.4771L49.61 10.307L51.0498 13.463L53.4481 15.9478L54.1011 19.3633L55.8431 22.3579L55.6723 25.8316L56.6577 29.1626L55.6731 32.4936L55.8431 35.9672L54.1011 38.9627L53.4481 42.3765L51.0498 44.8614L49.6108 48.0182L46.6958 49.8489L44.5542 52.5643L41.2925 53.6334L38.5718 55.7493L35.1536 55.9961L32.0131 57.3896L28.6352 56.7987Z" stroke="black" stroke-width="0.5"/>
</svg>
