<svg width="57" height="58" viewBox="0 0 57 58" fill="none" xmlns="http://www.w3.org/2000/svg">
<path fill-rule="evenodd" clip-rule="evenodd" d="M36.2152 45.8887L47.2017 19.0229L37.3336 46.3199C37.3069 46.3939 37.2658 46.4619 37.2128 46.5201C37.1597 46.5782 37.0958 46.6253 37.0245 46.6587C36.9533 46.6921 36.8762 46.7112 36.7975 46.7148C36.7189 46.7184 36.6404 46.7065 36.5664 46.6797C36.4924 46.653 36.4244 46.6119 36.3663 46.5589C36.3081 46.5059 36.261 46.4419 36.2276 46.3707C36.1942 46.2994 36.1751 46.2223 36.1715 46.1437C36.1679 46.0651 36.1798 45.9865 36.2066 45.9125L36.2152 45.8887Z" fill="#010202"/>
<path d="M22.1036 46.9587C22.1036 46.9587 12.5115 44.5856 9.09331 40.6925C5.67702 36.7974 0.166603 31.2908 0.641589 8.02403C0.641589 8.02403 4.25111 4.32123 23.4333 14.6719M37.0033 45.4709C36.4322 46.8958 38.2465 57.2142 38.2465 57.2142C38.2465 57.2142 30.8399 52.372 27.1371 43.4453C23.4324 34.5186 24.8583 32.7148 25.1429 27.4918C25.4266 22.2679 30.2355 14.1179 33.0721 11.3956C35.1157 9.43281 41.9578 4.27553 45.672 1.50843C45.9883 1.27328 46.3492 1.10505 46.7326 1.01401C47.116 0.922962 47.514 0.911014 47.9022 0.978892C48.2904 1.04677 48.6607 1.19305 48.9905 1.4088C49.3203 1.62455 49.6026 1.90525 49.8203 2.23376C54.1247 8.66845 56.5863 16.2387 56.4254 23.9794C56.3302 28.5703 55.3165 33.1993 52.3266 36.2615C52.3266 36.2615 45.2751 43.0655 39.5762 43.7299C33.8792 44.3943 37.6591 54.7945 37.6591 54.7945L37.0033 45.4709Z" stroke="#010202" stroke-width="0.5" stroke-linecap="round" stroke-linejoin="round"/>
<path fill-rule="evenodd" clip-rule="evenodd" d="M12.0545 18.3471C13.4642 19.744 14.8108 21.2031 16.0905 22.72C16.7321 23.4786 17.4127 24.2173 17.919 25.0902C18.3836 25.9659 18.9318 26.8949 18.9166 27.961C18.9165 27.9706 18.9132 27.9798 18.9072 27.9873C18.9012 27.9947 18.8929 28 18.8836 28.0021C18.8743 28.0043 18.8645 28.0034 18.8558 27.9994C18.8472 27.9954 18.8401 27.9886 18.8357 27.9801L18.8329 27.9725C18.3836 27.0958 17.7905 26.3447 17.2051 25.5642C16.6254 24.7837 16.1114 23.9479 15.5498 23.1398C14.3955 21.5371 13.2089 19.9579 11.9908 18.4032C11.9872 18.3988 11.9846 18.3938 11.983 18.3883C11.9815 18.3829 11.9811 18.3772 11.9818 18.3716C11.9825 18.366 11.9843 18.3606 11.9872 18.3557C11.99 18.3509 11.9938 18.3466 11.9984 18.3433C12.0065 18.3368 12.0168 18.3336 12.0272 18.3343C12.0376 18.335 12.0473 18.3396 12.0545 18.3471Z" fill="#010202"/>
</svg>
