<svg width="30" height="31" viewBox="0 0 30 31" fill="none" xmlns="http://www.w3.org/2000/svg">
<path fill-rule="evenodd" clip-rule="evenodd" d="M19.1039 24.2259L24.7803 10.3452L19.6818 24.4487C19.668 24.4869 19.6468 24.522 19.6193 24.5521C19.5919 24.5821 19.5589 24.6064 19.5221 24.6237C19.4853 24.641 19.4454 24.6508 19.4048 24.6527C19.3642 24.6545 19.3236 24.6484 19.2854 24.6346C19.2472 24.6207 19.212 24.5995 19.182 24.5721C19.152 24.5447 19.1276 24.5117 19.1103 24.4749C19.0931 24.4381 19.0832 24.3982 19.0814 24.3576C19.0795 24.317 19.0857 24.2764 19.0995 24.2382L19.1039 24.2259Z" fill="#010202"/>
<path d="M11.813 24.7786C11.813 24.7786 6.85714 23.5525 5.09107 21.5411C3.32599 19.5286 0.478941 16.6835 0.724351 4.66238C0.724351 4.66238 2.58927 2.74927 12.5001 8.09714M19.5112 24.0099C19.2162 24.7462 20.1535 30.0773 20.1535 30.0773C20.1535 30.0773 16.3268 27.5755 14.4137 22.9634C12.4996 18.3512 13.2363 17.4193 13.3834 14.7207C13.5299 12.0217 16.0145 7.81091 17.4801 6.40435C18.536 5.39025 22.0711 2.72566 23.9901 1.29599C24.1535 1.1745 24.3399 1.08758 24.538 1.04054C24.7361 0.993498 24.9418 0.987325 25.1423 1.02239C25.3429 1.05747 25.5342 1.13304 25.7046 1.24451C25.875 1.35599 26.0209 1.50101 26.1334 1.67074C28.3573 4.99533 29.6291 8.90664 29.546 12.906C29.4968 15.278 28.973 17.6696 27.4283 19.2517C27.4283 19.2517 23.785 22.7671 20.8406 23.1104C17.8971 23.4537 19.8501 28.8271 19.8501 28.8271L19.5112 24.0099Z" stroke="#010202" stroke-width="0.5" stroke-linecap="round" stroke-linejoin="round"/>
<path fill-rule="evenodd" clip-rule="evenodd" d="M6.62126 9.99589C7.34956 10.7177 8.04534 11.4715 8.7065 12.2552C9.03798 12.6472 9.38962 13.0288 9.65126 13.4798C9.89126 13.9323 10.1745 14.4123 10.1667 14.9631C10.1666 14.968 10.1649 14.9728 10.1618 14.9767C10.1587 14.9805 10.1544 14.9832 10.1496 14.9843C10.1448 14.9855 10.1398 14.985 10.1353 14.9829C10.1308 14.9808 10.1271 14.9773 10.1249 14.9729L10.1234 14.969C9.89126 14.5161 9.58486 14.128 9.28241 13.7247C8.9829 13.3215 8.71732 12.8897 8.42716 12.4721C7.83076 11.6441 7.21769 10.8282 6.58831 10.0249C6.58647 10.0226 6.58512 10.02 6.58432 10.0172C6.58352 10.0144 6.5833 10.0115 6.58367 10.0086C6.58404 10.0057 6.58499 10.0029 6.58646 10.0004C6.58793 9.99786 6.5899 9.99566 6.59224 9.99393C6.59646 9.99059 6.60177 9.98894 6.60713 9.98931C6.61249 9.98967 6.61753 9.99202 6.62126 9.99589Z" fill="#010202"/>
</svg>
